 <svg version="1.0" xmlns="http://www.w3.org/2000/svg"  width="550.000000pt" height="550.000000pt" viewBox="0 0 550.000000 550.000000"  preserveAspectRatio="xMidYMid meet">  <g transform="translate(0.000000,550.000000) scale(0.050000,-0.050000)" fill="#00ccff" stroke="none"> <path d="M4444 9276 c-39 -39 -28 -106 26 -156 70 -66 77 -55 -210 -333 -277 -268 -279 -271 -225 -335 34 -41 34 -41 -7 -7 -85 72 -71 32 22 -63 74 -76 102 -93 121 -75 30 27 -23 101 -61 86 -13 -5 -25 1 -26 14 -2 13 -6 43 -9 66 -6 48 407 487 458 487 38 0 58 -8 53 -22 -9 -26 256 -279 278 -266 14 9 17 5 7 -10 -19 -31 48 -107 82 -93 15 5 26 3 24 -5 -6 -45 6 -67 33 -57 46 18 38 6 -62 -94 -75 -75 -90 -102 -80 -141 20 -81 -68 -144 -124 -88 -13 13 -24 15 -24 4 0 -34 46 -68 90 -68 57 0 90 37 90 103 0 38 29 89 90 157 112 126 122 105 -198 416 -268 260 -274 271 -212 349 67 86 40 155 -60 155 -29 0 -63 -11 -76 -24z"/> <path d="M5229 8220 c-351 -352 -648 -636 -658 -633 -32 10 -31 154 1 216 22 43 24 68 8 97 -39 72 -32 543 9 605 40 62 29 155 -20 155 -24 0 -25 -7 -4 -40 53 -85 -51 -154 -124 -81 -22 22 -41 33 -41 23 0 -10 22 -39 50 -65 61 -58 77 -513 21 -588 -38 -50 -39 -98 -1 -129 34 -28 42 -200 10 -200 -11 0 -300 284 -643 630 -573 579 -740 723 -687 595 8 -19 18 -255 22 -525 6 -431 11 -492 40 -514 19 -14 180 -169 359 -345 l325 -321 617 0 c339 0 628 8 641 16 14 9 182 170 374 359 l349 344 5 511 c2 281 0 514 -5 519 -5 5 -296 -278 -648 -629z m532 265 c13 -199 9 -561 -6 -552 -13 8 -17 -11 -11 -49 5 -34 1 -57 -8 -52 -9 6 -16 -4 -16 -22 0 -18 -10 -26 -21 -19 -12 7 -27 -6 -33 -29 -10 -41 -28 -50 -81 -43 -14 1 -25 -6 -25 -17 0 -70 -42 -126 -74 -99 -29 24 -32 23 -20 -8 7 -19 3 -35 -8 -35 -11 0 -14 -10 -6 -23 10 -16 1 -20 -28 -12 -35 9 -42 3 -38 -32 3 -31 -9 -45 -41 -49 -25 -4 -40 -15 -34 -25 6 -11 -4 -19 -23 -19 -19 0 -29 -6 -22 -13 15 -14 -57 -73 -116 -95 -22 -8 -107 -19 -190 -25 -82 -5 -155 -19 -162 -30 -8 -13 -25 -4 -42 21 -16 23 -36 36 -43 28 -21 -21 -162 -13 -208 11 -31 17 -43 16 -51 -4 -13 -33 -237 -29 -321 5 -49 19 -62 18 -85 -13 -15 -20 -27 -25 -27 -11 -1 14 -13 20 -27 15 -14 -6 -53 13 -85 41 -33 28 -78 56 -102 62 -50 13 -79 88 -34 88 23 0 24 5 3 28 -14 15 -32 24 -40 19 -8 -5 -32 8 -54 27 -21 20 -53 48 -71 62 -18 15 -26 36 -18 48 8 13 4 16 -9 9 -12 -8 -32 4 -44 26 -12 23 -37 41 -56 41 -19 0 -46 27 -61 60 -14 33 -35 55 -45 49 -46 -28 -69 204 -27 272 10 16 7 20 -8 11 -15 -9 -23 3 -23 36 0 27 10 56 22 63 16 10 16 18 1 27 -31 20 -4 163 34 177 17 7 35 0 39 -14 10 -28 149 -167 282 -281 45 -38 82 -81 82 -94 0 -13 18 -29 40 -36 32 -10 36 -20 19 -51 -17 -32 -14 -39 18 -39 21 0 82 -40 134 -90 52 -49 103 -90 112 -90 8 0 10 -16 3 -35 -7 -19 -5 -28 4 -20 9 8 26 -4 38 -28 12 -23 29 -41 37 -40 27 4 116 -100 103 -121 -9 -14 -3 -15 22 -1 27 15 45 10 75 -20 34 -34 57 -37 172 -28 73 7 140 12 149 12 9 1 12 9 6 18 -13 21 60 102 94 105 13 2 35 1 49 -1 14 -1 24 4 23 13 -8 49 3 76 20 48 14 -21 21 -18 31 15 8 24 22 43 32 43 11 0 19 13 19 28 0 15 15 33 33 40 18 7 27 19 20 25 -7 7 7 30 31 50 33 29 47 32 59 12 11 -16 16 -4 17 32 0 49 5 54 30 33 25 -20 30 -19 30 8 0 17 10 32 22 32 12 0 18 11 13 24 -10 30 83 120 108 104 9 -5 17 4 17 22 0 18 9 27 20 20 11 -7 20 2 20 19 0 18 13 37 29 43 16 7 35 28 41 49 7 20 30 43 53 50 22 7 36 17 31 22 -17 16 95 119 121 111 15 -5 25 9 25 34 0 38 59 64 61 27z"/> <path d="M4291 8273 c24 -97 -60 -147 -134 -80 -45 40 -50 3 -6 -42 40 -39 88 -40 145 0 51 36 58 113 13 150 -28 23 -30 19 -18 -28z"/> <path d="M6563 7581 c38 -31 43 -45 25 -75 -29 -47 -95 -56 -127 -17 -21 25 -80 31 -329 31 l-303 0 -109 -110 c-130 -132 -95 -148 42 -20 l96 90 299 0 c245 0 303 -6 324 -31 40 -49 125 -28 147 35 21 60 -26 136 -83 136 -20 0 -13 -13 18 -39z"/> <path d="M2541 7491 c-31 -37 -83 -40 -121 -6 -16 14 -12 5 9 -20 43 -52 95 -58 131 -15 20 24 83 30 331 30 l306 0 90 -90 c87 -88 133 -111 133 -69 0 11 -42 60 -94 108 l-94 88 -333 2 c-277 2 -337 -3 -358 -28z"/> <path d="M1773 7350 c6 -16 1 -30 -11 -30 -12 0 -22 -7 -22 -15 0 -8 306 -15 680 -15 687 0 747 6 669 71 -23 19 -29 18 -29 -4 0 -33 -1216 -29 -1249 4 -29 29 -51 23 -38 -11z"/> <path d="M6007 7365 c9 -15 3 -30 -16 -37 -83 -32 19 -38 644 -34 627 3 736 12 666 55 -12 8 -21 6 -21 -3 0 -29 -1220 -11 -1256 18 -25 20 -28 20 -17 1z"/> <path d="M1602 7155 c-1 -19 -17 -35 -35 -35 -19 0 -29 -5 -23 -11 29 -28 2046 -11 2052 18 3 16 -3 35 -15 42 -12 7 -21 2 -21 -13 0 -33 -679 -27 -764 6 -29 12 -69 17 -90 10 -82 -25 -1083 -31 -1093 -6 -5 13 -11 9 -11 -11z"/> <path d="M5493 7150 c6 -17 -1 -32 -16 -34 -15 -3 432 -10 993 -15 1018 -11 1077 -8 1024 56 -21 25 -25 24 -31 -5 -4 -23 -18 -31 -40 -22 -18 7 -431 12 -917 12 -547 0 -889 7 -896 19 -21 33 -130 23 -117 -11z"/> <path d="M3201 6867 c17 -5 75 -89 130 -187 127 -230 159 -235 40 -6 -93 177 -118 207 -171 203 -26 -1 -26 -3 1 -10z"/> <path d="M3715 6866 c44 -9 45 -15 45 -277 l0 -269 -64 0 c-46 0 -58 -6 -42 -22 11 -11 47 -18 79 -15 l57 7 0 240 c0 132 8 252 17 266 24 38 -24 84 -84 81 -48 -2 -48 -3 -8 -11z"/> <path d="M4775 6867 c73 -30 26 -107 -65 -107 l-90 0 0 -220 0 -220 -50 0 c-52 0 -68 -29 -25 -45 101 -35 125 7 131 230 l5 213 75 6 c106 9 120 161 14 154 -11 -1 -9 -6 5 -11z"/> <path d="M6451 6861 c45 -18 169 -153 244 -266 28 -41 58 -75 68 -75 34 0 16 35 -65 122 -45 48 -94 112 -110 142 -31 60 -86 97 -142 95 -32 -1 -31 -3 5 -18z"/> <path d="M6835 6866 c70 -14 71 -546 1 -546 -25 0 -66 25 -91 55 -36 42 -42 45 -26 12 34 -72 81 -107 141 -107 l58 0 6 274 c6 292 -4 329 -90 323 -44 -2 -44 -3 1 -11z"/> <path d="M1824 6803 c139 -125 60 -296 -142 -307 l-112 -6 -6 -85 c-6 -87 -82 -127 -112 -60 -6 14 -9 7 -6 -15 3 -31 22 -41 78 -46 74 -6 74 -6 80 80 l6 86 85 2 c224 5 324 298 132 386 -73 33 -74 28 -3 -35z"/> <path d="M4254 6790 c129 -129 43 -289 -163 -306 l-111 -9 0 -77 c0 -70 -5 -78 -50 -78 -27 0 -50 -10 -50 -21 0 -72 130 -6 140 71 9 74 14 80 67 74 145 -15 231 55 252 206 11 79 12 80 96 80 48 0 82 9 78 20 -3 11 -46 20 -95 20 -62 0 -106 14 -146 45 -87 68 -97 54 -18 -25z"/> <path d="M6296 6815 c-5 -41 -16 -45 -136 -45 l-130 0 -6 -77 c-5 -51 1 -73 15 -64 12 8 17 21 11 31 -33 53 17 83 128 77 125 -7 162 8 162 63 0 55 -36 68 -44 15z"/> <path d="M7100 6592 l0 -272 -60 0 c-33 0 -60 -10 -60 -21 0 -13 34 -19 82 -15 l82 6 0 279 c0 185 -8 282 -22 287 -15 5 -22 -77 -22 -264z"/> <path d="M7596 6816 c-5 -41 -17 -45 -136 -45 l-130 -1 -6 -65 c-7 -72 30 -91 40 -20 6 41 15 45 125 41 126 -5 150 9 151 89 0 58 -35 59 -44 1z"/> <path d="M2368 6778 c67 -79 66 -147 -4 -217 l-57 -57 57 -83 c31 -45 56 -87 56 -92 0 -21 -118 -7 -127 16 -6 16 -10 17 -11 2 -3 -31 39 -60 103 -72 79 -14 85 12 24 114 l-52 90 41 53 c56 72 57 213 2 268 -64 64 -89 46 -32 -22z"/> <path d="M2920 6830 c0 -4 22 -30 48 -57 242 -241 -121 -616 -377 -391 -86 75 -95 49 -11 -32 236 -226 589 47 468 362 -25 66 -128 161 -128 118z"/> <path d="M5720 6822 c0 -10 11 -23 25 -28 19 -7 17 -17 -6 -42 -29 -30 -36 -30 -95 -1 -116 58 -264 -22 -264 -141 0 -63 40 -170 64 -170 12 0 14 15 5 35 -77 175 38 316 199 242 102 -46 199 28 128 99 -29 29 -56 31 -56 6z"/> <path d="M1573 6767 c-20 -21 -15 -187 6 -187 10 0 21 34 25 75 6 74 7 75 86 69 75 -5 78 -3 41 25 -39 32 -133 42 -158 18z"/> <path d="M2105 6765 c-29 -10 -35 -185 -6 -185 10 0 21 34 25 75 6 73 8 75 81 69 42 -3 75 3 75 15 0 12 -16 22 -35 24 -19 1 -53 4 -75 6 -22 3 -51 1 -65 -4z"/> <path d="M2687 6757 c-72 -36 -104 -142 -74 -252 20 -77 37 -50 31 50 -9 132 26 175 143 175 50 0 84 7 76 15 -26 26 -132 34 -176 12z"/> <path d="M3980 6670 c0 -49 9 -90 20 -90 11 0 20 32 20 70 0 67 3 70 70 70 39 0 70 9 70 20 0 11 -40 20 -90 20 l-90 0 0 -90z"/> <path d="M6514 6648 c-7 -8 -14 -85 -14 -171 0 -144 -3 -157 -40 -157 -22 0 -40 -9 -40 -20 0 -11 27 -20 60 -20 l60 0 0 148 c0 85 9 152 21 156 13 4 11 20 -6 42 -14 20 -33 30 -41 22z"/> <path d="M3241 6485 c-1 -162 -2 -165 -51 -165 -27 0 -50 -9 -50 -20 0 -23 140 -28 141 -5 0 8 3 76 6 151 3 88 -4 149 -20 170 -22 29 -26 7 -26 -131z"/> <path d="M3551 6490 c-66 -136 -80 -153 -121 -145 -33 6 -43 1 -36 -18 18 -47 122 -33 136 18 22 76 74 183 106 220 22 26 25 42 10 57 -15 15 -43 -24 -95 -132z"/> <path d="M6260 6587 c0 -32 -17 -37 -115 -37 l-115 0 -3 -80 c-2 -44 1 -60 6 -36 14 65 47 83 168 90 106 6 161 65 84 91 -14 5 -25 -8 -25 -28z"/> <path d="M7560 6591 c0 -21 -31 -31 -115 -35 l-115 -6 -6 -75 c-7 -85 30 -104 40 -20 5 50 14 55 96 58 50 2 101 5 115 5 29 2 34 102 5 102 -11 0 -20 -13 -20 -29z"/> <path d="M5795 6505 c13 -134 -32 -171 -216 -182 -145 -8 -279 71 -279 165 0 18 -9 32 -20 32 -52 0 41 -145 128 -199 103 -63 406 -38 414 34 18 168 16 245 -9 245 -20 0 -25 -24 -18 -95z"/> <path d="M5573 6543 c4 -14 7 -30 7 -35 0 -4 28 -8 61 -8 36 0 56 8 49 20 -7 11 -34 20 -60 20 -25 0 -50 7 -55 15 -5 8 -5 3 -2 -12z"/> <path d="M2080 6410 c0 -83 -4 -90 -50 -90 -27 0 -50 -10 -50 -21 0 -80 131 -4 140 81 9 80 15 89 56 85 27 -3 41 4 34 15 -42 67 -130 20 -130 -70z"/> <path d="M6300 6364 c0 -42 -7 -44 -204 -44 -141 0 -198 -6 -183 -21 40 -40 415 -15 424 28 4 21 -3 47 -15 59 -16 16 -22 10 -22 -22z"/> <path d="M7600 6359 c0 -40 -9 -41 -200 -35 -150 4 -200 0 -200 -19 0 -18 57 -25 218 -25 226 0 259 13 229 90 -17 44 -47 37 -47 -11z"/> <path d="M3390 6000 c-7 -11 16 -36 52 -55 134 -73 138 -82 124 -306 l-12 -202 294 -289 295 -288 -5 -435 -4 -435 46 -7 c41 -6 44 -1 31 50 -9 31 -14 240 -13 464 l2 407 -291 283 -290 283 1 133 c0 196 10 190 454 -241 l404 -392 4 -506 c3 -496 2 -507 -39 -536 -90 -63 -44 -188 69 -188 106 0 159 109 86 178 -46 42 -68 1045 -24 1082 9 7 193 181 409 387 451 429 438 422 424 228 -13 -190 -12 -188 -302 -455 -302 -278 -286 -240 -286 -698 0 -205 -2 -394 -5 -422 -3 -41 5 -50 46 -50 40 0 48 8 41 40 -4 22 -11 215 -15 428 l-8 389 291 281 291 282 1 180 c1 99 1 198 -1 220 -1 24 31 68 79 110 117 100 117 100 -280 100 l-361 0 -103 -95 c-57 -52 -142 -135 -189 -184 l-85 -90 -188 185 -188 184 -371 0 c-229 0 -376 -8 -384 -20z m1728 -155 c19 -32 21 -32 22 5 0 29 5 33 17 14 12 -18 30 -20 66 -7 41 16 50 13 47 -14 -2 -36 -48 -124 -49 -95 -1 10 -18 -2 -39 -26 -27 -31 -41 -36 -49 -18 -6 14 -9 8 -7 -14 2 -22 -1 -40 -8 -40 -6 0 -28 -13 -49 -30 -21 -17 -30 -19 -22 -5 9 14 6 25 -5 25 -34 0 -44 -37 -14 -54 22 -13 19 -23 -20 -52 -42 -31 -46 -32 -35 -2 11 27 7 29 -27 11 -23 -12 -48 -15 -57 -7 -8 8 -9 2 0 -12 17 -30 -47 -87 -77 -69 -10 6 -12 1 -5 -10 15 -24 -167 -225 -204 -225 -13 0 -23 -7 -23 -16 0 -44 -97 -20 -108 27 -16 61 -76 124 -108 114 -14 -5 -56 23 -94 61 -38 38 -73 64 -79 58 -6 -6 -11 -1 -11 11 0 12 11 26 25 32 14 5 5 11 -20 11 -25 1 -43 13 -40 27 3 14 -7 23 -21 20 -15 -3 -23 9 -20 29 3 19 -5 36 -19 38 -14 2 -32 5 -40 8 -8 3 -22 3 -31 2 -10 -2 -12 6 -5 16 6 11 2 25 -9 32 -11 7 -15 21 -9 31 6 11 -12 19 -40 19 -41 0 -51 10 -51 50 0 52 29 63 79 31 19 -12 39 -11 55 3 19 15 26 14 26 -2 0 -12 7 -20 15 -18 27 7 105 -26 108 -45 1 -11 3 -30 5 -44 1 -14 19 -25 40 -25 21 0 48 -18 60 -39 34 -60 59 -82 92 -80 17 1 59 -9 95 -23 39 -16 69 -18 76 -6 6 10 20 13 30 7 11 -6 19 -3 19 8 0 11 18 15 40 9 28 -7 40 -1 40 21 0 33 76 86 110 76 11 -4 14 0 6 8 -8 7 -3 26 10 41 13 14 35 40 48 56 14 16 41 26 60 23 20 -3 48 13 64 34 22 31 31 34 44 12 14 -21 17 -19 18 8 0 19 13 35 29 35 16 0 38 -16 49 -35z m-544 -1978 c19 -50 -53 -97 -91 -59 -16 16 -23 43 -16 60 16 42 91 41 107 -1z"/> <path d="M1565 5955 c3 -14 -11 -24 -31 -22 -20 2 -32 -7 -28 -20 4 -13 34 -21 66 -19 32 1 381 7 776 12 l718 9 82 -73 c114 -100 131 -124 131 -187 1 -70 -43 -72 -97 -3 l-40 51 -604 -2 c-334 -2 -619 -11 -636 -21 -20 -12 184 -18 559 -17 538 2 597 -1 660 -35 38 -20 74 -37 79 -38 86 -11 131 -274 49 -286 -26 -4 -56 16 -86 57 -27 36 -58 57 -74 51 -15 -5 -34 0 -41 12 -10 15 -5 16 14 5 23 -14 24 -11 2 15 -20 26 -74 32 -279 35 -230 3 -259 7 -300 45 -43 41 -66 25 -24 -17 54 -54 -55 -133 -115 -84 -29 24 -30 22 -9 -18 30 -55 71 -57 134 -8 41 33 75 36 293 28 l246 -10 94 -87 c91 -85 133 -111 105 -67 -7 12 6 10 29 -4 23 -15 42 -34 42 -43 0 -9 -9 -11 -20 -4 -11 7 -20 3 -20 -9 0 -11 10 -21 22 -21 13 0 19 -21 13 -49 -19 -101 235 -311 376 -311 112 0 116 -2 217 -106 56 -59 118 -115 137 -126 83 -46 66 -132 -53 -255 -62 -64 -112 -125 -112 -135 0 -10 -13 -18 -30 -18 -16 0 -30 -14 -30 -31 0 -55 49 -23 176 114 182 195 180 277 -11 464 l-135 133 -130 2 c-71 2 -137 1 -146 0 -10 -2 -12 5 -6 14 5 10 -39 66 -100 126 l-110 108 4 327 5 326 -96 94 -96 93 -758 2 c-416 1 -763 8 -770 15 -22 22 -47 15 -42 -12z"/> <path d="M5885 5893 c-178 -150 -165 -128 -163 -296 1 -85 -3 -163 -10 -173 -15 -25 9 -206 26 -195 7 4 15 69 17 144 4 144 65 230 200 287 36 15 984 10 1155 -6 45 -5 58 67 14 81 -14 5 -23 -1 -20 -14 4 -16 -159 -22 -593 -21 l-598 1 -92 -85 c-50 -47 -80 -73 -67 -58 17 20 18 39 4 66 -30 56 -9 97 103 193 l101 87 744 -3 c409 -1 764 -8 789 -14 30 -8 49 -1 57 22 17 44 -4 62 -40 33 -20 -17 -32 -18 -42 -2 -9 15 -241 21 -762 19 l-748 -3 -75 -63z"/> <path d="M6671 5513 c18 -72 -22 -119 -90 -104 -49 11 -49 10 -12 -19 96 -75 214 73 120 151 -28 23 -30 19 -18 -28z"/> <path d="M5872 5327 c-122 -116 -152 -155 -130 -168 22 -14 -5 -50 -116 -158 l-144 -141 -126 0 -127 0 -136 -137 -135 -136 4 -109 c5 -107 179 -344 203 -274 4 13 18 16 33 7 21 -13 21 -19 -1 -33 -19 -12 -21 -22 -5 -38 16 -16 29 -13 46 8 20 24 17 36 -14 66 -227 213 -224 209 -224 285 0 66 16 90 128 198 l129 123 123 0 124 0 138 133 c100 96 138 148 139 185 0 38 36 84 134 172 l133 120 171 -6 c94 -3 207 0 251 8 134 23 27 45 -220 46 l-220 0 -158 -151z"/> <path d="M3759 4651 c13 -16 21 -50 18 -75 -10 -66 -102 -74 -147 -12 l-34 46 15 -50 c36 -124 209 -107 209 20 0 52 -32 100 -66 100 -11 0 -8 -13 5 -29z"/> <path d="M5359 4644 c47 -92 -44 -171 -115 -100 -16 16 -24 16 -24 2 0 -38 56 -69 113 -62 84 9 112 101 49 161 l-47 45 24 -46z"/> </g> </svg> 
